<?xml version="1.0" encoding="UTF-8"?>
<svg xmlns="http://www.w3.org/2000/svg" xmlns:xlink="http://www.w3.org/1999/xlink" width="540" height="960" viewBox="0 0 540 960">
<defs>
<g>
<g id="glyph-0-0">
<path d="M 4.011719 -3.101562 L 3.777344 -3.101562 C 3.71875 -3.269531 3.617188 -3.441406 3.472656 -3.628906 C 3.324219 -3.8125 3.1875 -3.914062 3.054688 -3.933594 C 2.996094 -3.941406 2.917969 -3.949219 2.816406 -3.953125 C 2.71875 -3.960938 2.628906 -3.960938 2.542969 -3.960938 L 1.886719 -3.960938 L 1.886719 -2.304688 L 2.304688 -2.304688 C 2.425781 -2.304688 2.527344 -2.316406 2.617188 -2.34375 C 2.703125 -2.371094 2.78125 -2.417969 2.847656 -2.488281 C 2.898438 -2.539062 2.949219 -2.621094 2.996094 -2.738281 C 3.039062 -2.855469 3.070312 -2.953125 3.078125 -3.039062 L 3.304688 -3.039062 L 3.304688 -1.257812 L 3.078125 -1.257812 C 3.070312 -1.34375 3.039062 -1.453125 2.988281 -1.582031 C 2.933594 -1.710938 2.886719 -1.796875 2.847656 -1.839844 C 2.792969 -1.902344 2.71875 -1.949219 2.628906 -1.980469 C 2.539062 -2.011719 2.433594 -2.027344 2.304688 -2.027344 L 1.886719 -2.027344 L 1.886719 -0.625 C 1.886719 -0.550781 1.898438 -0.492188 1.925781 -0.441406 C 1.953125 -0.390625 2.003906 -0.347656 2.078125 -0.316406 C 2.125 -0.296875 2.183594 -0.28125 2.261719 -0.265625 C 2.335938 -0.253906 2.414062 -0.242188 2.488281 -0.234375 L 2.488281 0 L 0.207031 0 L 0.207031 -0.234375 C 0.261719 -0.238281 0.339844 -0.246094 0.4375 -0.257812 C 0.53125 -0.269531 0.597656 -0.28125 0.636719 -0.296875 C 0.707031 -0.328125 0.757812 -0.363281 0.785156 -0.414062 C 0.8125 -0.464844 0.828125 -0.527344 0.828125 -0.605469 L 0.828125 -3.59375 C 0.828125 -3.660156 0.8125 -3.71875 0.789062 -3.769531 C 0.765625 -3.820312 0.714844 -3.863281 0.636719 -3.898438 C 0.578125 -3.921875 0.507812 -3.941406 0.414062 -3.960938 C 0.324219 -3.980469 0.253906 -3.996094 0.207031 -4 L 0.207031 -4.234375 L 4.011719 -4.234375 Z "/>
</g>
<g id="glyph-0-1">
<path d="M 2.058594 0 L 0.171875 0 L 0.171875 -0.21875 C 0.226562 -0.222656 0.277344 -0.226562 0.324219 -0.234375 C 0.375 -0.238281 0.417969 -0.25 0.453125 -0.261719 C 0.515625 -0.285156 0.5625 -0.320312 0.585938 -0.367188 C 0.613281 -0.410156 0.625 -0.46875 0.625 -0.542969 L 0.625 -2.28125 C 0.625 -2.347656 0.609375 -2.410156 0.578125 -2.464844 C 0.546875 -2.515625 0.507812 -2.558594 0.460938 -2.589844 C 0.421875 -2.613281 0.371094 -2.636719 0.296875 -2.660156 C 0.222656 -2.679688 0.15625 -2.695312 0.0976562 -2.699219 L 0.0976562 -2.917969 L 1.558594 -2.996094 L 1.605469 -2.949219 L 1.605469 -0.582031 C 1.605469 -0.511719 1.621094 -0.453125 1.648438 -0.402344 C 1.679688 -0.355469 1.722656 -0.320312 1.777344 -0.296875 C 1.816406 -0.277344 1.863281 -0.261719 1.910156 -0.246094 C 1.957031 -0.234375 2.007812 -0.222656 2.058594 -0.21875 L 2.058594 0 M 1.625 -4.070312 C 1.625 -3.917969 1.566406 -3.789062 1.449219 -3.683594 C 1.332031 -3.578125 1.195312 -3.523438 1.035156 -3.523438 C 0.875 -3.523438 0.734375 -3.578125 0.617188 -3.683594 C 0.503906 -3.789062 0.445312 -3.917969 0.445312 -4.070312 C 0.445312 -4.222656 0.503906 -4.351562 0.617188 -4.457031 C 0.734375 -4.566406 0.875 -4.617188 1.035156 -4.617188 C 1.195312 -4.617188 1.335938 -4.566406 1.449219 -4.457031 C 1.566406 -4.351562 1.625 -4.222656 1.625 -4.070312 Z "/>
</g>
<g id="glyph-0-2">
<path d="M 3.144531 -2.414062 C 3.144531 -2.261719 3.097656 -2.128906 3.003906 -2.015625 C 2.910156 -1.902344 2.789062 -1.84375 2.632812 -1.84375 C 2.488281 -1.84375 2.367188 -1.878906 2.265625 -1.953125 C 2.164062 -2.027344 2.117188 -2.136719 2.117188 -2.277344 C 2.117188 -2.347656 2.121094 -2.402344 2.128906 -2.441406 C 2.140625 -2.476562 2.148438 -2.515625 2.15625 -2.546875 C 2.066406 -2.542969 1.96875 -2.511719 1.867188 -2.453125 C 1.765625 -2.394531 1.675781 -2.316406 1.597656 -2.21875 L 1.597656 -0.578125 C 1.597656 -0.507812 1.609375 -0.453125 1.632812 -0.40625 C 1.652344 -0.359375 1.691406 -0.324219 1.742188 -0.296875 C 1.785156 -0.277344 1.855469 -0.257812 1.957031 -0.242188 C 2.054688 -0.226562 2.125 -0.21875 2.167969 -0.21875 L 2.167969 0 L 0.171875 0 L 0.171875 -0.21875 C 0.222656 -0.222656 0.273438 -0.226562 0.324219 -0.234375 C 0.375 -0.242188 0.417969 -0.25 0.453125 -0.261719 C 0.515625 -0.285156 0.5625 -0.316406 0.585938 -0.363281 C 0.609375 -0.410156 0.621094 -0.46875 0.621094 -0.542969 L 0.621094 -2.28125 C 0.621094 -2.351562 0.605469 -2.414062 0.570312 -2.472656 C 0.535156 -2.527344 0.496094 -2.574219 0.449219 -2.609375 C 0.410156 -2.632812 0.367188 -2.652344 0.3125 -2.667969 C 0.257812 -2.683594 0.195312 -2.695312 0.132812 -2.699219 L 0.132812 -2.917969 L 1.554688 -2.996094 L 1.597656 -2.949219 L 1.597656 -2.519531 L 1.609375 -2.519531 C 1.75 -2.675781 1.894531 -2.800781 2.046875 -2.894531 C 2.203125 -2.984375 2.363281 -3.027344 2.53125 -3.027344 C 2.714844 -3.027344 2.863281 -2.972656 2.976562 -2.855469 C 3.089844 -2.742188 3.144531 -2.59375 3.144531 -2.414062 Z "/>
</g>
<g id="glyph-0-3">
<path d="M 3.378906 -0.714844 C 3.3125 -0.601562 3.226562 -0.492188 3.128906 -0.390625 C 3.03125 -0.292969 2.917969 -0.207031 2.792969 -0.132812 C 2.660156 -0.0585938 2.523438 0 2.386719 0.0390625 C 2.253906 0.0742188 2.09375 0.09375 1.917969 0.09375 C 1.625 0.09375 1.371094 0.0546875 1.15625 -0.03125 C 0.941406 -0.113281 0.765625 -0.226562 0.625 -0.367188 C 0.488281 -0.507812 0.382812 -0.675781 0.316406 -0.867188 C 0.246094 -1.058594 0.210938 -1.265625 0.210938 -1.492188 C 0.210938 -1.695312 0.25 -1.890625 0.324219 -2.074219 C 0.398438 -2.261719 0.503906 -2.425781 0.640625 -2.570312 C 0.777344 -2.714844 0.949219 -2.828125 1.152344 -2.914062 C 1.359375 -3.003906 1.589844 -3.046875 1.84375 -3.046875 C 2.121094 -3.046875 2.351562 -3.011719 2.53125 -2.945312 C 2.710938 -2.878906 2.855469 -2.785156 2.976562 -2.664062 C 3.089844 -2.550781 3.171875 -2.417969 3.222656 -2.261719 C 3.273438 -2.109375 3.300781 -1.949219 3.300781 -1.777344 L 3.300781 -1.585938 L 1.28125 -1.585938 C 1.28125 -1.175781 1.363281 -0.867188 1.519531 -0.652344 C 1.675781 -0.441406 1.925781 -0.335938 2.269531 -0.335938 C 2.453125 -0.335938 2.621094 -0.386719 2.773438 -0.488281 C 2.921875 -0.589844 3.046875 -0.71875 3.152344 -0.878906 L 3.378906 -0.714844 M 2.242188 -1.847656 C 2.242188 -1.964844 2.234375 -2.089844 2.222656 -2.214844 C 2.210938 -2.339844 2.191406 -2.441406 2.160156 -2.519531 C 2.125 -2.613281 2.082031 -2.683594 2.019531 -2.734375 C 1.960938 -2.78125 1.890625 -2.804688 1.800781 -2.804688 C 1.644531 -2.804688 1.523438 -2.726562 1.433594 -2.570312 C 1.339844 -2.417969 1.289062 -2.171875 1.28125 -1.835938 Z "/>
</g>
<g id="glyph-0-4">
</g>
<g id="glyph-0-5">
<path d="M 1.554688 0.101562 C 1.363281 0.101562 1.171875 0.0742188 0.988281 0.015625 C 0.804688 -0.0390625 0.664062 -0.101562 0.5625 -0.164062 L 0.472656 0.0390625 L 0.238281 0.0390625 L 0.199219 -1.074219 L 0.417969 -1.074219 C 0.449219 -0.984375 0.496094 -0.882812 0.566406 -0.769531 C 0.636719 -0.660156 0.714844 -0.558594 0.804688 -0.46875 C 0.898438 -0.378906 1.007812 -0.304688 1.125 -0.242188 C 1.246094 -0.179688 1.375 -0.148438 1.511719 -0.148438 C 1.695312 -0.148438 1.828125 -0.183594 1.917969 -0.253906 C 2.003906 -0.324219 2.050781 -0.433594 2.050781 -0.582031 C 2.050781 -0.660156 2.03125 -0.726562 1.988281 -0.777344 C 1.949219 -0.832031 1.894531 -0.875 1.824219 -0.914062 C 1.75 -0.953125 1.664062 -0.988281 1.570312 -1.015625 C 1.476562 -1.042969 1.363281 -1.074219 1.230469 -1.117188 C 1.09375 -1.15625 0.976562 -1.195312 0.882812 -1.238281 C 0.785156 -1.277344 0.683594 -1.339844 0.582031 -1.429688 C 0.492188 -1.507812 0.421875 -1.601562 0.367188 -1.710938 C 0.3125 -1.820312 0.285156 -1.949219 0.285156 -2.101562 C 0.285156 -2.382812 0.402344 -2.609375 0.640625 -2.78125 C 0.875 -2.953125 1.183594 -3.039062 1.566406 -3.039062 C 1.746094 -3.039062 1.914062 -3.023438 2.066406 -2.984375 C 2.21875 -2.949219 2.347656 -2.90625 2.449219 -2.863281 L 2.511719 -3.039062 L 2.738281 -3.039062 L 2.785156 -2.023438 L 2.578125 -2.023438 C 2.507812 -2.230469 2.390625 -2.410156 2.21875 -2.558594 C 2.050781 -2.707031 1.867188 -2.785156 1.675781 -2.785156 C 1.519531 -2.785156 1.398438 -2.753906 1.3125 -2.6875 C 1.226562 -2.625 1.179688 -2.535156 1.179688 -2.421875 C 1.179688 -2.273438 1.246094 -2.164062 1.375 -2.09375 C 1.5 -2.027344 1.679688 -1.964844 1.910156 -1.902344 C 2.265625 -1.8125 2.527344 -1.6875 2.691406 -1.527344 C 2.855469 -1.371094 2.9375 -1.167969 2.9375 -0.925781 C 2.9375 -0.597656 2.8125 -0.347656 2.554688 -0.167969 C 2.300781 0.0117188 1.964844 0.101562 1.554688 0.101562 Z "/>
</g>
<g id="glyph-0-6">
<path d="M 4 0 L 2.59375 0 C 2.421875 -0.304688 2.265625 -0.5625 2.121094 -0.773438 C 1.976562 -0.984375 1.84375 -1.179688 1.714844 -1.359375 L 1.539062 -1.210938 L 1.539062 -0.5625 C 1.539062 -0.488281 1.550781 -0.429688 1.570312 -0.386719 C 1.59375 -0.339844 1.632812 -0.304688 1.691406 -0.285156 C 1.726562 -0.265625 1.769531 -0.253906 1.816406 -0.242188 C 1.863281 -0.230469 1.914062 -0.222656 1.960938 -0.21875 L 1.960938 0 L 0.105469 0 L 0.105469 -0.21875 C 0.15625 -0.222656 0.207031 -0.226562 0.257812 -0.234375 C 0.308594 -0.242188 0.351562 -0.25 0.390625 -0.261719 C 0.453125 -0.285156 0.496094 -0.316406 0.519531 -0.363281 C 0.542969 -0.410156 0.554688 -0.46875 0.554688 -0.542969 L 0.554688 -3.871094 C 0.554688 -3.933594 0.539062 -4.003906 0.511719 -4.074219 C 0.484375 -4.144531 0.441406 -4.199219 0.386719 -4.234375 C 0.347656 -4.257812 0.289062 -4.277344 0.214844 -4.292969 C 0.140625 -4.308594 0.0703125 -4.320312 0.0078125 -4.324219 L 0.0078125 -4.542969 L 1.496094 -4.617188 L 1.539062 -4.570312 L 1.539062 -1.492188 C 1.6875 -1.625 1.851562 -1.777344 2.035156 -1.949219 C 2.21875 -2.121094 2.367188 -2.265625 2.476562 -2.378906 C 2.542969 -2.445312 2.582031 -2.496094 2.585938 -2.53125 C 2.59375 -2.566406 2.597656 -2.585938 2.597656 -2.597656 C 2.597656 -2.632812 2.566406 -2.660156 2.503906 -2.683594 C 2.441406 -2.710938 2.347656 -2.730469 2.21875 -2.746094 L 2.21875 -2.960938 L 3.734375 -2.960938 L 3.734375 -2.753906 C 3.535156 -2.699219 3.386719 -2.644531 3.28125 -2.597656 C 3.175781 -2.546875 3.0625 -2.484375 2.941406 -2.402344 C 2.859375 -2.347656 2.78125 -2.292969 2.703125 -2.234375 C 2.628906 -2.175781 2.539062 -2.101562 2.441406 -2.011719 C 2.636719 -1.730469 2.816406 -1.46875 2.980469 -1.230469 C 3.144531 -0.988281 3.316406 -0.734375 3.496094 -0.464844 C 3.558594 -0.371094 3.636719 -0.308594 3.726562 -0.277344 C 3.820312 -0.246094 3.910156 -0.226562 4 -0.21875 Z "/>
</g>
</g>
</defs>
<g fill="rgb(89.803922%, 19.215686%, 43.921569%)" fill-opacity="1">
<use xlink:href="#glyph-0-0" x="30" y="25.603516"/>
<use xlink:href="#glyph-0-1" x="34" y="25.603516"/>
<use xlink:href="#glyph-0-2" x="36" y="25.603516"/>
<use xlink:href="#glyph-0-3" x="39" y="25.603516"/>
<use xlink:href="#glyph-0-4" x="42" y="25.603516"/>
<use xlink:href="#glyph-0-2" x="44" y="25.603516"/>
<use xlink:href="#glyph-0-1" x="47" y="25.603516"/>
<use xlink:href="#glyph-0-5" x="49" y="25.603516"/>
<use xlink:href="#glyph-0-6" x="52" y="25.603516"/>
</g>
</svg>
