<?xml version="1.0" encoding="UTF-8"?>
<svg xmlns="http://www.w3.org/2000/svg" xmlns:xlink="http://www.w3.org/1999/xlink" width="540" height="960" viewBox="0 0 540 960">
<defs>
<g>
<g id="glyph-0-0">
<path d="M 2.824219 0 L 0.359375 0 L 0.359375 -0.226562 C 0.421875 -0.230469 0.515625 -0.242188 0.644531 -0.257812 C 0.777344 -0.273438 0.867188 -0.289062 0.914062 -0.304688 C 0.972656 -0.324219 1.019531 -0.359375 1.054688 -0.40625 C 1.085938 -0.453125 1.105469 -0.519531 1.105469 -0.601562 L 1.105469 -2.496094 L 0.347656 -2.496094 L 0.347656 -2.777344 L 0.511719 -2.777344 C 0.6875 -2.777344 0.835938 -2.796875 0.960938 -2.835938 C 1.089844 -2.871094 1.195312 -2.917969 1.277344 -2.972656 C 1.363281 -3.027344 1.433594 -3.085938 1.488281 -3.144531 C 1.542969 -3.203125 1.585938 -3.257812 1.617188 -3.304688 L 2.140625 -3.304688 C 2.136719 -3.171875 2.128906 -3.023438 2.125 -2.847656 C 2.117188 -2.675781 2.117188 -2.519531 2.117188 -2.382812 L 2.117188 -0.636719 C 2.117188 -0.5625 2.132812 -0.5 2.160156 -0.449219 C 2.191406 -0.394531 2.238281 -0.355469 2.292969 -0.328125 C 2.347656 -0.304688 2.433594 -0.28125 2.554688 -0.261719 C 2.675781 -0.242188 2.765625 -0.230469 2.824219 -0.226562 Z "/>
</g>
<g id="glyph-0-1">
<path d="M 3.53125 -2.78125 C 3.683594 -2.621094 3.796875 -2.441406 3.867188 -2.234375 C 3.941406 -2.03125 3.976562 -1.820312 3.976562 -1.601562 C 3.976562 -1.339844 3.933594 -1.105469 3.839844 -0.898438 C 3.75 -0.6875 3.628906 -0.507812 3.46875 -0.363281 C 3.304688 -0.210938 3.113281 -0.0976562 2.894531 -0.0195312 C 2.675781 0.0625 2.421875 0.101562 2.140625 0.101562 C 1.839844 0.101562 1.574219 0.0546875 1.34375 -0.0390625 C 1.113281 -0.132812 0.921875 -0.253906 0.769531 -0.410156 C 0.617188 -0.558594 0.503906 -0.738281 0.425781 -0.941406 C 0.347656 -1.148438 0.308594 -1.367188 0.308594 -1.601562 C 0.308594 -1.835938 0.34375 -2.050781 0.417969 -2.25 C 0.492188 -2.449219 0.609375 -2.628906 0.765625 -2.789062 C 0.914062 -2.945312 1.105469 -3.074219 1.339844 -3.167969 C 1.574219 -3.261719 1.839844 -3.308594 2.140625 -3.308594 C 2.453125 -3.308594 2.726562 -3.261719 2.960938 -3.164062 C 3.191406 -3.066406 3.382812 -2.9375 3.53125 -2.78125 M 2.691406 -0.558594 C 2.75 -0.691406 2.789062 -0.839844 2.816406 -1.003906 C 2.839844 -1.167969 2.851562 -1.367188 2.851562 -1.601562 C 2.851562 -1.8125 2.839844 -2.003906 2.816406 -2.171875 C 2.796875 -2.339844 2.757812 -2.492188 2.703125 -2.621094 C 2.648438 -2.757812 2.574219 -2.863281 2.484375 -2.9375 C 2.390625 -3.007812 2.277344 -3.046875 2.144531 -3.046875 C 2.011719 -3.046875 1.898438 -3.011719 1.804688 -2.9375 C 1.714844 -2.863281 1.640625 -2.761719 1.582031 -2.628906 C 1.53125 -2.507812 1.492188 -2.359375 1.46875 -2.183594 C 1.445312 -2.007812 1.433594 -1.8125 1.433594 -1.601562 C 1.433594 -1.382812 1.441406 -1.195312 1.464844 -1.039062 C 1.484375 -0.882812 1.523438 -0.734375 1.578125 -0.589844 C 1.628906 -0.460938 1.699219 -0.355469 1.792969 -0.277344 C 1.886719 -0.199219 2.003906 -0.15625 2.140625 -0.15625 C 2.265625 -0.15625 2.378906 -0.195312 2.46875 -0.265625 C 2.5625 -0.335938 2.636719 -0.433594 2.691406 -0.558594 Z "/>
</g>
<g id="glyph-0-2">
<path d="M 3.800781 -1.46875 L 2.390625 -1.46875 L 2.390625 -0.0585938 L 1.902344 -0.0585938 L 1.902344 -1.46875 L 0.488281 -1.46875 L 0.488281 -1.957031 L 1.902344 -1.957031 L 1.902344 -3.367188 L 2.390625 -3.367188 L 2.390625 -1.957031 L 3.800781 -1.957031 Z "/>
</g>
</g>
</defs>
<g fill="rgb(89.803922%, 19.215686%, 43.921569%)" fill-opacity="1">
<use xlink:href="#glyph-0-0" x="30" y="25.603516"/>
<use xlink:href="#glyph-0-1" x="33" y="25.603516"/>
<use xlink:href="#glyph-0-1" x="37" y="25.603516"/>
<use xlink:href="#glyph-0-1" x="41" y="25.603516"/>
<use xlink:href="#glyph-0-2" x="45" y="25.603516"/>
</g>
</svg>
