<?xml version="1.0" encoding="UTF-8"?>
<svg xmlns="http://www.w3.org/2000/svg" xmlns:xlink="http://www.w3.org/1999/xlink" width="540" height="960" viewBox="0 0 540 960">
<defs>
<g>
<g id="glyph-0-0">
<path d="M 3.089844 -1.003906 C 3.210938 -0.921875 3.308594 -0.816406 3.390625 -0.683594 C 3.46875 -0.550781 3.507812 -0.390625 3.507812 -0.195312 C 3.507812 0.175781 3.332031 0.484375 2.976562 0.730469 C 2.617188 0.976562 2.160156 1.101562 1.597656 1.101562 C 1.199219 1.101562 0.855469 1.015625 0.574219 0.84375 C 0.296875 0.671875 0.15625 0.460938 0.15625 0.207031 C 0.15625 0.0664062 0.199219 -0.0507812 0.289062 -0.148438 C 0.382812 -0.246094 0.503906 -0.296875 0.652344 -0.296875 C 0.8125 -0.296875 0.9375 -0.253906 1.039062 -0.167969 C 1.140625 -0.0859375 1.191406 0.0273438 1.191406 0.171875 C 1.191406 0.265625 1.171875 0.375 1.136719 0.496094 C 1.101562 0.617188 1.074219 0.707031 1.054688 0.765625 C 1.101562 0.785156 1.15625 0.800781 1.226562 0.808594 C 1.296875 0.820312 1.378906 0.828125 1.472656 0.828125 C 1.585938 0.828125 1.699219 0.808594 1.808594 0.769531 C 1.921875 0.730469 2.015625 0.671875 2.097656 0.585938 C 2.183594 0.496094 2.25 0.390625 2.296875 0.269531 C 2.34375 0.148438 2.367188 -0.0117188 2.367188 -0.207031 C 2.367188 -0.320312 2.355469 -0.429688 2.335938 -0.53125 C 2.3125 -0.632812 2.277344 -0.722656 2.21875 -0.796875 C 2.164062 -0.871094 2.089844 -0.929688 1.992188 -0.972656 C 1.894531 -1.015625 1.773438 -1.039062 1.625 -1.039062 L 1.246094 -1.039062 L 1.246094 -1.398438 L 1.511719 -1.398438 C 1.761719 -1.398438 1.945312 -1.472656 2.058594 -1.621094 C 2.167969 -1.769531 2.226562 -1.996094 2.226562 -2.300781 C 2.226562 -2.546875 2.171875 -2.730469 2.0625 -2.851562 C 1.953125 -2.972656 1.796875 -3.035156 1.59375 -3.035156 C 1.515625 -3.035156 1.449219 -3.03125 1.390625 -3.019531 C 1.332031 -3.011719 1.273438 -2.996094 1.214844 -2.972656 C 1.234375 -2.902344 1.261719 -2.808594 1.296875 -2.6875 C 1.328125 -2.566406 1.34375 -2.464844 1.34375 -2.378906 C 1.34375 -2.238281 1.292969 -2.125 1.195312 -2.039062 C 1.097656 -1.957031 0.972656 -1.914062 0.816406 -1.914062 C 0.664062 -1.914062 0.546875 -1.964844 0.457031 -2.0625 C 0.371094 -2.160156 0.324219 -2.277344 0.324219 -2.417969 C 0.324219 -2.664062 0.46875 -2.875 0.753906 -3.046875 C 1.039062 -3.222656 1.398438 -3.308594 1.828125 -3.308594 C 2.128906 -3.308594 2.375 -3.273438 2.570312 -3.203125 C 2.765625 -3.136719 2.921875 -3.050781 3.035156 -2.949219 C 3.144531 -2.847656 3.222656 -2.742188 3.265625 -2.628906 C 3.308594 -2.511719 3.328125 -2.410156 3.328125 -2.316406 C 3.328125 -2.230469 3.3125 -2.132812 3.273438 -2.019531 C 3.238281 -1.910156 3.183594 -1.8125 3.113281 -1.730469 C 3.023438 -1.628906 2.910156 -1.542969 2.769531 -1.46875 C 2.628906 -1.394531 2.460938 -1.335938 2.273438 -1.296875 L 2.273438 -1.25 C 2.402344 -1.242188 2.542969 -1.21875 2.691406 -1.179688 C 2.84375 -1.140625 2.976562 -1.082031 3.089844 -1.003906 Z "/>
</g>
<g id="glyph-0-1">
<path d="M 3.53125 -2.78125 C 3.683594 -2.621094 3.796875 -2.441406 3.867188 -2.234375 C 3.941406 -2.03125 3.976562 -1.820312 3.976562 -1.601562 C 3.976562 -1.339844 3.933594 -1.105469 3.839844 -0.898438 C 3.75 -0.6875 3.628906 -0.507812 3.46875 -0.363281 C 3.304688 -0.210938 3.113281 -0.0976562 2.894531 -0.0195312 C 2.675781 0.0625 2.421875 0.101562 2.140625 0.101562 C 1.839844 0.101562 1.574219 0.0546875 1.34375 -0.0390625 C 1.113281 -0.132812 0.921875 -0.253906 0.769531 -0.410156 C 0.617188 -0.558594 0.503906 -0.738281 0.425781 -0.941406 C 0.347656 -1.148438 0.308594 -1.367188 0.308594 -1.601562 C 0.308594 -1.835938 0.34375 -2.050781 0.417969 -2.25 C 0.492188 -2.449219 0.609375 -2.628906 0.765625 -2.789062 C 0.914062 -2.945312 1.105469 -3.074219 1.339844 -3.167969 C 1.574219 -3.261719 1.839844 -3.308594 2.140625 -3.308594 C 2.453125 -3.308594 2.726562 -3.261719 2.960938 -3.164062 C 3.191406 -3.066406 3.382812 -2.9375 3.53125 -2.78125 M 2.691406 -0.558594 C 2.75 -0.691406 2.789062 -0.839844 2.816406 -1.003906 C 2.839844 -1.167969 2.851562 -1.367188 2.851562 -1.601562 C 2.851562 -1.8125 2.839844 -2.003906 2.816406 -2.171875 C 2.796875 -2.339844 2.757812 -2.492188 2.703125 -2.621094 C 2.648438 -2.757812 2.574219 -2.863281 2.484375 -2.9375 C 2.390625 -3.007812 2.277344 -3.046875 2.144531 -3.046875 C 2.011719 -3.046875 1.898438 -3.011719 1.804688 -2.9375 C 1.714844 -2.863281 1.640625 -2.761719 1.582031 -2.628906 C 1.53125 -2.507812 1.492188 -2.359375 1.46875 -2.183594 C 1.445312 -2.007812 1.433594 -1.8125 1.433594 -1.601562 C 1.433594 -1.382812 1.441406 -1.195312 1.464844 -1.039062 C 1.484375 -0.882812 1.523438 -0.734375 1.578125 -0.589844 C 1.628906 -0.460938 1.699219 -0.355469 1.792969 -0.277344 C 1.886719 -0.199219 2.003906 -0.15625 2.140625 -0.15625 C 2.265625 -0.15625 2.378906 -0.195312 2.46875 -0.265625 C 2.5625 -0.335938 2.636719 -0.433594 2.691406 -0.558594 Z "/>
</g>
<g id="glyph-0-2">
<path d="M 3.800781 -1.46875 L 2.390625 -1.46875 L 2.390625 -0.0585938 L 1.902344 -0.0585938 L 1.902344 -1.46875 L 0.488281 -1.46875 L 0.488281 -1.957031 L 1.902344 -1.957031 L 1.902344 -3.367188 L 2.390625 -3.367188 L 2.390625 -1.957031 L 3.800781 -1.957031 Z "/>
</g>
</g>
</defs>
<g fill="rgb(100%, 53.72549%, 2.352941%)" fill-opacity="1">
<use xlink:href="#glyph-0-0" x="30" y="25.603516"/>
<use xlink:href="#glyph-0-1" x="34" y="25.603516"/>
<use xlink:href="#glyph-0-1" x="38" y="25.603516"/>
<use xlink:href="#glyph-0-1" x="42" y="25.603516"/>
<use xlink:href="#glyph-0-2" x="46" y="25.603516"/>
</g>
</svg>
