<?xml version="1.0" encoding="UTF-8"?>
<svg xmlns="http://www.w3.org/2000/svg" xmlns:xlink="http://www.w3.org/1999/xlink" width="540" height="960" viewBox="0 0 540 960">
<defs>
<g>
<g id="glyph-0-0">
<path d="M 13.691406 0 L 8.476562 0 L 8.476562 -0.527344 C 8.632812 -0.542969 8.820312 -0.566406 9.042969 -0.597656 C 9.265625 -0.628906 9.421875 -0.664062 9.5 -0.699219 C 9.667969 -0.765625 9.789062 -0.859375 9.859375 -0.976562 C 9.933594 -1.09375 9.96875 -1.242188 9.96875 -1.425781 L 9.96875 -8.613281 L 6.660156 -0.15625 L 5.804688 -0.15625 C 5.765625 -0.304688 5.664062 -0.601562 5.503906 -1.042969 C 5.34375 -1.488281 5.214844 -1.84375 5.113281 -2.109375 L 2.679688 -8.722656 L 2.679688 -2.867188 C 2.679688 -2.308594 2.714844 -1.882812 2.789062 -1.589844 C 2.867188 -1.296875 2.984375 -1.085938 3.152344 -0.949219 C 3.265625 -0.855469 3.46875 -0.765625 3.761719 -0.679688 C 4.050781 -0.59375 4.257812 -0.542969 4.375 -0.527344 L 4.375 0 L 0.238281 0 L 0.238281 -0.527344 C 0.351562 -0.542969 0.535156 -0.574219 0.789062 -0.621094 C 1.046875 -0.667969 1.253906 -0.75 1.417969 -0.867188 C 1.597656 -0.996094 1.71875 -1.207031 1.785156 -1.507812 C 1.847656 -1.808594 1.878906 -2.238281 1.878906 -2.792969 L 1.878906 -7.5625 C 1.878906 -7.851562 1.84375 -8.09375 1.769531 -8.285156 C 1.699219 -8.476562 1.589844 -8.628906 1.445312 -8.742188 C 1.265625 -8.882812 1.078125 -8.972656 0.886719 -9.011719 C 0.699219 -9.054688 0.507812 -9.082031 0.3125 -9.09375 L 0.3125 -9.625 L 4.746094 -9.625 L 7.117188 -3.28125 L 9.117188 -8.429688 C 9.1875 -8.617188 9.25 -8.84375 9.316406 -9.109375 C 9.378906 -9.371094 9.410156 -9.542969 9.417969 -9.625 L 13.679688 -9.625 L 13.679688 -9.09375 C 13.535156 -9.085938 13.382812 -9.066406 13.226562 -9.039062 C 13.066406 -9.011719 12.914062 -8.976562 12.769531 -8.933594 C 12.59375 -8.871094 12.476562 -8.78125 12.421875 -8.652344 C 12.363281 -8.527344 12.335938 -8.386719 12.335938 -8.234375 L 12.335938 -1.417969 C 12.335938 -1.253906 12.363281 -1.117188 12.421875 -1.007812 C 12.476562 -0.894531 12.59375 -0.800781 12.769531 -0.71875 C 12.859375 -0.679688 13.007812 -0.640625 13.214844 -0.605469 C 13.421875 -0.566406 13.578125 -0.542969 13.691406 -0.527344 Z "/>
</g>
<g id="glyph-0-1">
<path d="M 7.683594 -1.621094 C 7.527344 -1.363281 7.335938 -1.121094 7.109375 -0.890625 C 6.886719 -0.664062 6.632812 -0.46875 6.347656 -0.304688 C 6.046875 -0.132812 5.738281 -0.00390625 5.429688 0.0859375 C 5.121094 0.171875 4.761719 0.21875 4.359375 0.21875 C 3.691406 0.21875 3.113281 0.121094 2.628906 -0.0664062 C 2.140625 -0.257812 1.742188 -0.511719 1.425781 -0.835938 C 1.109375 -1.15625 0.871094 -1.535156 0.714844 -1.96875 C 0.558594 -2.40625 0.480469 -2.878906 0.480469 -3.390625 C 0.480469 -3.851562 0.566406 -4.292969 0.734375 -4.71875 C 0.90625 -5.140625 1.144531 -5.515625 1.457031 -5.847656 C 1.765625 -6.167969 2.152344 -6.425781 2.621094 -6.625 C 3.089844 -6.824219 3.613281 -6.925781 4.191406 -6.925781 C 4.824219 -6.925781 5.34375 -6.847656 5.75 -6.695312 C 6.15625 -6.539062 6.496094 -6.328125 6.761719 -6.054688 C 7.019531 -5.796875 7.207031 -5.496094 7.324219 -5.144531 C 7.441406 -4.792969 7.5 -4.425781 7.5 -4.042969 L 7.5 -3.601562 L 2.917969 -3.601562 C 2.917969 -2.675781 3.09375 -1.96875 3.453125 -1.484375 C 3.808594 -1 4.375 -0.757812 5.152344 -0.757812 C 5.578125 -0.757812 5.960938 -0.875 6.300781 -1.109375 C 6.640625 -1.339844 6.929688 -1.636719 7.167969 -1.992188 L 7.683594 -1.621094 M 5.09375 -4.199219 C 5.09375 -4.46875 5.078125 -4.746094 5.050781 -5.03125 C 5.023438 -5.316406 4.976562 -5.550781 4.910156 -5.730469 C 4.832031 -5.941406 4.726562 -6.105469 4.59375 -6.210938 C 4.460938 -6.320312 4.292969 -6.375 4.089844 -6.375 C 3.742188 -6.375 3.464844 -6.199219 3.253906 -5.847656 C 3.046875 -5.492188 2.933594 -4.933594 2.917969 -4.171875 Z "/>
</g>
<g id="glyph-0-2">
<path d="M 5.4375 -0.3125 C 5.148438 -0.183594 4.839844 -0.0703125 4.511719 0.03125 C 4.179688 0.132812 3.777344 0.183594 3.304688 0.183594 C 2.597656 0.183594 2.074219 0.0117188 1.734375 -0.332031 C 1.390625 -0.675781 1.222656 -1.164062 1.222656 -1.800781 L 1.222656 -5.960938 L 0 -5.960938 L 0 -6.699219 L 1.246094 -6.699219 L 1.246094 -8.753906 L 3.445312 -8.753906 L 3.445312 -6.699219 L 5.351562 -6.699219 L 5.351562 -5.960938 L 3.457031 -5.960938 L 3.457031 -2.25 C 3.457031 -1.722656 3.53125 -1.347656 3.679688 -1.125 C 3.828125 -0.902344 4.089844 -0.792969 4.472656 -0.792969 C 4.59375 -0.792969 4.765625 -0.800781 4.984375 -0.820312 C 5.199219 -0.839844 5.351562 -0.859375 5.4375 -0.882812 Z "/>
</g>
<g id="glyph-0-3">
</g>
<g id="glyph-0-4">
<path d="M 4.503906 0.265625 C 3.914062 0.265625 3.367188 0.191406 2.859375 0.0429688 C 2.351562 -0.101562 1.917969 -0.277344 1.566406 -0.476562 L 1.097656 0 L 0.523438 0 L 0.433594 -3.480469 L 1.015625 -3.480469 C 1.148438 -3.148438 1.316406 -2.800781 1.519531 -2.433594 C 1.722656 -2.066406 1.957031 -1.738281 2.222656 -1.445312 C 2.5 -1.144531 2.808594 -0.894531 3.148438 -0.707031 C 3.492188 -0.515625 3.890625 -0.421875 4.347656 -0.421875 C 4.960938 -0.421875 5.433594 -0.570312 5.761719 -0.871094 C 6.089844 -1.171875 6.253906 -1.550781 6.253906 -2.007812 C 6.253906 -2.382812 6.113281 -2.699219 5.835938 -2.957031 C 5.558594 -3.210938 5.128906 -3.433594 4.542969 -3.617188 C 4.164062 -3.742188 3.816406 -3.855469 3.496094 -3.960938 C 3.175781 -4.0625 2.878906 -4.171875 2.597656 -4.277344 C 1.949219 -4.539062 1.46875 -4.90625 1.15625 -5.386719 C 0.84375 -5.867188 0.683594 -6.402344 0.683594 -6.996094 C 0.683594 -7.371094 0.765625 -7.730469 0.929688 -8.078125 C 1.09375 -8.425781 1.328125 -8.734375 1.640625 -9.011719 C 1.941406 -9.269531 2.320312 -9.480469 2.789062 -9.644531 C 3.253906 -9.804688 3.757812 -9.886719 4.304688 -9.886719 C 4.839844 -9.886719 5.339844 -9.8125 5.804688 -9.664062 C 6.269531 -9.515625 6.636719 -9.367188 6.902344 -9.214844 L 7.316406 -9.625 L 7.90625 -9.625 L 7.960938 -6.339844 L 7.378906 -6.339844 C 7.242188 -6.695312 7.082031 -7.054688 6.902344 -7.425781 C 6.71875 -7.792969 6.523438 -8.101562 6.320312 -8.347656 C 6.097656 -8.609375 5.84375 -8.820312 5.554688 -8.976562 C 5.265625 -9.132812 4.925781 -9.210938 4.535156 -9.210938 C 4.046875 -9.210938 3.648438 -9.070312 3.339844 -8.796875 C 3.03125 -8.519531 2.875 -8.175781 2.875 -7.769531 C 2.875 -7.386719 3.011719 -7.070312 3.277344 -6.824219 C 3.546875 -6.582031 3.96875 -6.367188 4.535156 -6.179688 C 4.871094 -6.066406 5.214844 -5.953125 5.5625 -5.839844 C 5.910156 -5.726562 6.21875 -5.617188 6.492188 -5.515625 C 7.144531 -5.261719 7.644531 -4.910156 7.984375 -4.464844 C 8.328125 -4.019531 8.496094 -3.464844 8.496094 -2.804688 C 8.496094 -2.386719 8.402344 -1.984375 8.207031 -1.597656 C 8.011719 -1.207031 7.75 -0.882812 7.417969 -0.625 C 7.058594 -0.339844 6.640625 -0.121094 6.164062 0.0351562 C 5.691406 0.1875 5.136719 0.265625 4.503906 0.265625 Z "/>
</g>
<g id="glyph-0-5">
<path d="M 7.316406 -5.925781 C 7.652344 -5.617188 7.90625 -5.242188 8.085938 -4.808594 C 8.261719 -4.375 8.347656 -3.902344 8.347656 -3.398438 C 8.347656 -2.894531 8.261719 -2.421875 8.085938 -1.976562 C 7.914062 -1.53125 7.660156 -1.152344 7.324219 -0.835938 C 6.96875 -0.496094 6.542969 -0.234375 6.046875 -0.0546875 C 5.550781 0.125 4.984375 0.21875 4.347656 0.21875 C 3.796875 0.21875 3.289062 0.136719 2.824219 -0.0195312 C 2.359375 -0.179688 1.949219 -0.414062 1.59375 -0.734375 C 1.25 -1.035156 0.980469 -1.410156 0.78125 -1.855469 C 0.582031 -2.300781 0.480469 -2.796875 0.480469 -3.351562 C 0.480469 -3.894531 0.570312 -4.375 0.742188 -4.796875 C 0.917969 -5.222656 1.179688 -5.597656 1.527344 -5.925781 C 1.859375 -6.242188 2.273438 -6.488281 2.761719 -6.664062 C 3.253906 -6.835938 3.800781 -6.925781 4.410156 -6.925781 C 5.042969 -6.925781 5.597656 -6.835938 6.078125 -6.664062 C 6.5625 -6.488281 6.972656 -6.242188 7.316406 -5.925781 M 5.582031 -1.226562 C 5.679688 -1.480469 5.753906 -1.789062 5.800781 -2.148438 C 5.847656 -2.511719 5.875 -2.933594 5.875 -3.410156 C 5.875 -3.726562 5.851562 -4.089844 5.804688 -4.496094 C 5.761719 -4.902344 5.691406 -5.222656 5.601562 -5.460938 C 5.492188 -5.746094 5.34375 -5.96875 5.152344 -6.128906 C 4.957031 -6.292969 4.714844 -6.375 4.421875 -6.375 C 4.101562 -6.375 3.84375 -6.285156 3.652344 -6.109375 C 3.460938 -5.933594 3.3125 -5.707031 3.207031 -5.425781 C 3.113281 -5.167969 3.046875 -4.867188 3.011719 -4.519531 C 2.976562 -4.175781 2.957031 -3.8125 2.957031 -3.4375 C 2.957031 -2.945312 2.972656 -2.539062 3.003906 -2.214844 C 3.035156 -1.890625 3.113281 -1.566406 3.234375 -1.242188 C 3.339844 -0.960938 3.488281 -0.738281 3.683594 -0.578125 C 3.878906 -0.414062 4.125 -0.332031 4.421875 -0.332031 C 4.691406 -0.332031 4.925781 -0.40625 5.121094 -0.558594 C 5.316406 -0.710938 5.46875 -0.933594 5.582031 -1.226562 Z "/>
</g>
<g id="glyph-0-6">
<path d="M 9.15625 -0.140625 L 5.8125 0.0546875 L 5.710938 -0.0390625 L 5.710938 -0.664062 L 5.664062 -0.679688 C 5.441406 -0.4375 5.140625 -0.230469 4.765625 -0.0507812 C 4.386719 0.128906 4.007812 0.21875 3.625 0.21875 C 2.710938 0.21875 1.960938 -0.121094 1.367188 -0.800781 C 0.777344 -1.476562 0.480469 -2.355469 0.480469 -3.429688 C 0.480469 -4.386719 0.8125 -5.203125 1.472656 -5.886719 C 2.136719 -6.570312 2.9375 -6.910156 3.875 -6.910156 C 4.246094 -6.910156 4.59375 -6.867188 4.917969 -6.785156 C 5.242188 -6.703125 5.503906 -6.601562 5.695312 -6.492188 L 5.695312 -8.707031 C 5.695312 -8.875 5.664062 -9.03125 5.59375 -9.179688 C 5.527344 -9.328125 5.4375 -9.441406 5.324219 -9.523438 C 5.183594 -9.621094 5.007812 -9.691406 4.796875 -9.734375 C 4.589844 -9.777344 4.375 -9.808594 4.164062 -9.828125 L 4.164062 -10.320312 L 7.832031 -10.5 L 7.933594 -10.390625 L 7.933594 -1.5 C 7.933594 -1.328125 7.964844 -1.183594 8.019531 -1.066406 C 8.074219 -0.945312 8.167969 -0.855469 8.292969 -0.785156 C 8.386719 -0.738281 8.523438 -0.699219 8.707031 -0.679688 C 8.890625 -0.65625 9.039062 -0.640625 9.15625 -0.636719 L 9.15625 -0.140625 M 5.695312 -1.347656 L 5.695312 -5.179688 C 5.664062 -5.285156 5.621094 -5.402344 5.566406 -5.527344 C 5.507812 -5.652344 5.429688 -5.773438 5.332031 -5.886719 C 5.242188 -5.980469 5.121094 -6.066406 4.96875 -6.136719 C 4.820312 -6.210938 4.648438 -6.246094 4.457031 -6.246094 C 4.007812 -6.246094 3.636719 -5.992188 3.347656 -5.480469 C 3.058594 -4.96875 2.917969 -4.246094 2.917969 -3.316406 C 2.917969 -2.949219 2.941406 -2.621094 2.992188 -2.328125 C 3.046875 -2.039062 3.136719 -1.773438 3.269531 -1.53125 C 3.398438 -1.292969 3.566406 -1.105469 3.773438 -0.96875 C 3.976562 -0.835938 4.222656 -0.765625 4.511719 -0.765625 C 4.789062 -0.765625 5.015625 -0.820312 5.195312 -0.925781 C 5.375 -1.03125 5.542969 -1.171875 5.695312 -1.347656 Z "/>
</g>
<g id="glyph-0-7">
<path d="M 4.679688 0 L 0.394531 0 L 0.394531 -0.496094 C 0.511719 -0.503906 0.625 -0.515625 0.738281 -0.527344 C 0.851562 -0.542969 0.949219 -0.566406 1.03125 -0.597656 C 1.175781 -0.652344 1.277344 -0.730469 1.335938 -0.832031 C 1.394531 -0.933594 1.425781 -1.066406 1.425781 -1.234375 L 1.425781 -5.179688 C 1.425781 -5.339844 1.386719 -5.480469 1.316406 -5.597656 C 1.242188 -5.71875 1.152344 -5.8125 1.042969 -5.886719 C 0.964844 -5.941406 0.839844 -5.992188 0.675781 -6.042969 C 0.511719 -6.09375 0.359375 -6.125 0.222656 -6.136719 L 0.222656 -6.632812 L 3.546875 -6.808594 L 3.648438 -6.707031 L 3.648438 -1.324219 C 3.648438 -1.164062 3.683594 -1.03125 3.75 -0.917969 C 3.816406 -0.808594 3.914062 -0.726562 4.042969 -0.671875 C 4.132812 -0.628906 4.230469 -0.59375 4.339844 -0.5625 C 4.449219 -0.53125 4.5625 -0.507812 4.679688 -0.496094 L 4.679688 0 M 3.6875 -9.25 C 3.6875 -8.90625 3.558594 -8.613281 3.292969 -8.371094 C 3.027344 -8.128906 2.714844 -8.007812 2.351562 -8.007812 C 1.988281 -8.007812 1.671875 -8.128906 1.40625 -8.371094 C 1.144531 -8.613281 1.011719 -8.90625 1.011719 -9.25 C 1.011719 -9.59375 1.144531 -9.886719 1.40625 -10.132812 C 1.671875 -10.375 1.988281 -10.5 2.351562 -10.5 C 2.71875 -10.5 3.035156 -10.375 3.296875 -10.132812 C 3.558594 -9.886719 3.6875 -9.59375 3.6875 -9.25 Z "/>
</g>
<g id="glyph-0-8">
<path d="M 9.238281 -0.140625 L 6.003906 0.0546875 L 5.898438 -0.0390625 L 5.898438 -0.929688 L 5.859375 -0.929688 C 5.707031 -0.789062 5.554688 -0.652344 5.410156 -0.519531 C 5.261719 -0.386719 5.085938 -0.265625 4.882812 -0.15625 C 4.652344 -0.0351562 4.4375 0.0546875 4.230469 0.117188 C 4.027344 0.175781 3.726562 0.203125 3.332031 0.203125 C 2.652344 0.203125 2.128906 -0.00390625 1.765625 -0.414062 C 1.402344 -0.824219 1.222656 -1.40625 1.222656 -2.15625 L 1.222656 -5.207031 C 1.222656 -5.386719 1.1875 -5.527344 1.121094 -5.640625 C 1.050781 -5.75 0.960938 -5.847656 0.851562 -5.933594 C 0.761719 -6.003906 0.644531 -6.050781 0.5 -6.078125 C 0.355469 -6.109375 0.226562 -6.128906 0.109375 -6.136719 L 0.109375 -6.632812 L 3.382812 -6.808594 L 3.457031 -6.707031 L 3.457031 -2.199219 C 3.457031 -1.730469 3.546875 -1.386719 3.726562 -1.167969 C 3.90625 -0.945312 4.152344 -0.835938 4.460938 -0.835938 C 4.785156 -0.835938 5.070312 -0.917969 5.328125 -1.085938 C 5.582031 -1.253906 5.769531 -1.429688 5.886719 -1.621094 L 5.886719 -5.277344 C 5.886719 -5.429688 5.855469 -5.566406 5.796875 -5.691406 C 5.738281 -5.8125 5.652344 -5.910156 5.539062 -5.988281 C 5.460938 -6.042969 5.34375 -6.078125 5.191406 -6.097656 C 5.039062 -6.113281 4.886719 -6.128906 4.726562 -6.136719 L 4.726562 -6.632812 L 8.023438 -6.808594 L 8.125 -6.707031 L 8.125 -1.472656 C 8.125 -1.3125 8.15625 -1.179688 8.21875 -1.066406 C 8.28125 -0.957031 8.375 -0.863281 8.496094 -0.785156 C 8.582031 -0.734375 8.691406 -0.695312 8.828125 -0.675781 C 8.964844 -0.65625 9.101562 -0.640625 9.238281 -0.636719 Z "/>
</g>
<g id="glyph-0-9">
<path d="M 13.863281 0 L 9.832031 0 L 9.832031 -0.496094 C 9.933594 -0.507812 10.035156 -0.519531 10.144531 -0.527344 C 10.25 -0.539062 10.339844 -0.5625 10.414062 -0.597656 C 10.511719 -0.640625 10.574219 -0.71875 10.601562 -0.824219 C 10.628906 -0.929688 10.640625 -1.066406 10.640625 -1.234375 L 10.640625 -4.402344 C 10.640625 -4.867188 10.558594 -5.214844 10.390625 -5.449219 C 10.226562 -5.683594 9.988281 -5.796875 9.683594 -5.796875 C 9.488281 -5.796875 9.3125 -5.769531 9.160156 -5.707031 C 9.007812 -5.644531 8.871094 -5.570312 8.742188 -5.480469 C 8.613281 -5.386719 8.507812 -5.289062 8.4375 -5.195312 C 8.363281 -5.101562 8.304688 -5.019531 8.253906 -4.949219 L 8.253906 -1.308594 C 8.253906 -1.144531 8.273438 -1.015625 8.3125 -0.914062 C 8.347656 -0.808594 8.417969 -0.730469 8.523438 -0.671875 C 8.59375 -0.628906 8.675781 -0.59375 8.769531 -0.5625 C 8.859375 -0.53125 8.957031 -0.507812 9.0625 -0.496094 L 9.0625 0 L 5.207031 0 L 5.207031 -0.496094 C 5.292969 -0.503906 5.398438 -0.515625 5.519531 -0.527344 C 5.640625 -0.542969 5.730469 -0.566406 5.785156 -0.597656 C 5.882812 -0.648438 5.941406 -0.71875 5.972656 -0.8125 C 6 -0.910156 6.015625 -1.050781 6.015625 -1.234375 L 6.015625 -4.402344 C 6.015625 -4.867188 5.933594 -5.214844 5.765625 -5.449219 C 5.601562 -5.683594 5.363281 -5.796875 5.054688 -5.796875 C 4.863281 -5.796875 4.6875 -5.769531 4.535156 -5.707031 C 4.382812 -5.644531 4.246094 -5.570312 4.117188 -5.480469 C 3.988281 -5.386719 3.882812 -5.289062 3.8125 -5.195312 C 3.738281 -5.101562 3.679688 -5.019531 3.628906 -4.949219 L 3.628906 -1.308594 C 3.628906 -1.152344 3.648438 -1.019531 3.6875 -0.914062 C 3.730469 -0.8125 3.800781 -0.730469 3.90625 -0.671875 C 3.980469 -0.628906 4.0625 -0.59375 4.152344 -0.5625 C 4.246094 -0.53125 4.34375 -0.507812 4.449219 -0.496094 L 4.449219 0 L 0.386719 0 L 0.386719 -0.496094 C 0.503906 -0.503906 0.621094 -0.515625 0.734375 -0.527344 C 0.84375 -0.542969 0.941406 -0.566406 1.023438 -0.597656 C 1.167969 -0.652344 1.269531 -0.730469 1.324219 -0.832031 C 1.375 -0.933594 1.402344 -1.066406 1.402344 -1.234375 L 1.402344 -5.179688 C 1.402344 -5.324219 1.367188 -5.46875 1.289062 -5.605469 C 1.210938 -5.742188 1.117188 -5.851562 1.011719 -5.925781 C 0.929688 -5.980469 0.828125 -6.027344 0.703125 -6.0625 C 0.578125 -6.097656 0.441406 -6.125 0.292969 -6.136719 L 0.292969 -6.632812 L 3.527344 -6.808594 L 3.628906 -6.707031 L 3.628906 -5.75 L 3.65625 -5.75 C 3.78125 -5.863281 3.933594 -6 4.105469 -6.15625 C 4.28125 -6.3125 4.445312 -6.4375 4.597656 -6.53125 C 4.765625 -6.640625 4.980469 -6.730469 5.242188 -6.800781 C 5.503906 -6.875 5.792969 -6.910156 6.105469 -6.910156 C 6.617188 -6.910156 7.050781 -6.800781 7.394531 -6.574219 C 7.742188 -6.351562 7.988281 -6.054688 8.132812 -5.683594 L 8.191406 -5.683594 C 8.324219 -5.804688 8.484375 -5.949219 8.675781 -6.113281 C 8.863281 -6.277344 9.039062 -6.410156 9.195312 -6.511719 C 9.371094 -6.625 9.597656 -6.71875 9.871094 -6.796875 C 10.144531 -6.871094 10.4375 -6.910156 10.75 -6.910156 C 11.433594 -6.910156 11.957031 -6.710938 12.324219 -6.308594 C 12.695312 -5.90625 12.878906 -5.332031 12.878906 -4.589844 L 12.878906 -1.296875 C 12.878906 -1.128906 12.902344 -0.992188 12.953125 -0.890625 C 13.003906 -0.789062 13.09375 -0.710938 13.226562 -0.65625 C 13.296875 -0.625 13.386719 -0.59375 13.492188 -0.5625 C 13.597656 -0.53125 13.722656 -0.507812 13.863281 -0.496094 Z "/>
</g>
</g>
</defs>
<g fill="rgb(100%, 53.72549%, 2.352941%)" fill-opacity="1">
<use xlink:href="#glyph-0-0" x="30" y="32.735352"/>
<use xlink:href="#glyph-0-1" x="44" y="32.735352"/>
<use xlink:href="#glyph-0-1" x="52" y="32.735352"/>
<use xlink:href="#glyph-0-2" x="60" y="32.735352"/>
<use xlink:href="#glyph-0-3" x="66" y="32.735352"/>
<use xlink:href="#glyph-0-4" x="70" y="32.735352"/>
<use xlink:href="#glyph-0-5" x="79" y="32.735352"/>
<use xlink:href="#glyph-0-6" x="88" y="32.735352"/>
<use xlink:href="#glyph-0-7" x="97" y="32.735352"/>
<use xlink:href="#glyph-0-8" x="102" y="32.735352"/>
<use xlink:href="#glyph-0-9" x="111" y="32.735352"/>
</g>
</svg>
