<?xml version="1.0" encoding="UTF-8"?>
<svg xmlns="http://www.w3.org/2000/svg" xmlns:xlink="http://www.w3.org/1999/xlink" width="540" height="960" viewBox="0 0 540 960">
<defs>
<g>
<g id="glyph-0-0">
<path d="M 10.664062 -3.457031 L 10.453125 0 L 0.523438 0 L 0.523438 -0.59375 C 0.703125 -0.609375 0.910156 -0.632812 1.148438 -0.664062 C 1.386719 -0.699219 1.542969 -0.730469 1.617188 -0.757812 C 1.800781 -0.832031 1.925781 -0.929688 1.996094 -1.054688 C 2.070312 -1.183594 2.105469 -1.34375 2.105469 -1.542969 L 2.105469 -9.144531 C 2.105469 -9.328125 2.074219 -9.476562 2.019531 -9.597656 C 1.964844 -9.714844 1.832031 -9.824219 1.617188 -9.921875 C 1.460938 -9.992188 1.273438 -10.046875 1.050781 -10.089844 C 0.832031 -10.132812 0.65625 -10.164062 0.523438 -10.1875 L 0.523438 -10.777344 L 6.441406 -10.777344 L 6.441406 -10.1875 C 6.277344 -10.171875 6.089844 -10.148438 5.867188 -10.121094 C 5.648438 -10.09375 5.457031 -10.054688 5.292969 -10.003906 C 5.097656 -9.9375 4.964844 -9.835938 4.898438 -9.695312 C 4.832031 -9.558594 4.800781 -9.398438 4.800781 -9.222656 L 4.800781 -2.132812 C 4.800781 -1.800781 4.824219 -1.535156 4.867188 -1.34375 C 4.914062 -1.152344 5.003906 -1.011719 5.132812 -0.917969 C 5.265625 -0.824219 5.449219 -0.761719 5.683594 -0.734375 C 5.921875 -0.707031 6.246094 -0.691406 6.660156 -0.691406 C 7.066406 -0.691406 7.460938 -0.714844 7.84375 -0.761719 C 8.226562 -0.8125 8.5 -0.917969 8.667969 -1.078125 C 8.925781 -1.335938 9.191406 -1.699219 9.460938 -2.167969 C 9.730469 -2.636719 9.949219 -3.066406 10.109375 -3.457031 Z "/>
</g>
<g id="glyph-0-1">
<path d="M 5.242188 0 L 0.441406 0 L 0.441406 -0.554688 C 0.570312 -0.566406 0.703125 -0.578125 0.828125 -0.59375 C 0.953125 -0.609375 1.0625 -0.632812 1.15625 -0.667969 C 1.316406 -0.730469 1.429688 -0.816406 1.496094 -0.929688 C 1.5625 -1.042969 1.59375 -1.195312 1.59375 -1.382812 L 1.59375 -5.804688 C 1.59375 -5.980469 1.554688 -6.136719 1.472656 -6.269531 C 1.390625 -6.40625 1.292969 -6.511719 1.167969 -6.59375 C 1.078125 -6.652344 0.941406 -6.710938 0.753906 -6.769531 C 0.570312 -6.824219 0.402344 -6.859375 0.25 -6.875 L 0.25 -7.429688 L 3.972656 -7.625 L 4.085938 -7.511719 L 4.085938 -1.480469 C 4.085938 -1.304688 4.125 -1.152344 4.199219 -1.027344 C 4.277344 -0.90625 4.386719 -0.8125 4.527344 -0.753906 C 4.628906 -0.707031 4.738281 -0.664062 4.859375 -0.628906 C 4.984375 -0.59375 5.109375 -0.570312 5.242188 -0.554688 L 5.242188 0 M 4.132812 -10.359375 C 4.132812 -9.976562 3.984375 -9.648438 3.6875 -9.375 C 3.390625 -9.105469 3.039062 -8.96875 2.636719 -8.96875 C 2.226562 -8.96875 1.871094 -9.105469 1.574219 -9.375 C 1.28125 -9.648438 1.132812 -9.976562 1.132812 -10.359375 C 1.132812 -10.746094 1.28125 -11.074219 1.574219 -11.347656 C 1.871094 -11.621094 2.226562 -11.757812 2.636719 -11.757812 C 3.046875 -11.757812 3.398438 -11.621094 3.691406 -11.347656 C 3.984375 -11.074219 4.132812 -10.746094 4.132812 -10.359375 Z "/>
</g>
<g id="glyph-0-2">
<path d="M 6.089844 -0.347656 C 5.769531 -0.207031 5.421875 -0.078125 5.050781 0.0351562 C 4.679688 0.148438 4.230469 0.207031 3.699219 0.207031 C 2.910156 0.207031 2.324219 0.0117188 1.941406 -0.371094 C 1.558594 -0.757812 1.367188 -1.304688 1.367188 -2.019531 L 1.367188 -6.675781 L 0 -6.675781 L 0 -7.503906 L 1.398438 -7.503906 L 1.398438 -9.804688 L 3.859375 -9.804688 L 3.859375 -7.503906 L 5.992188 -7.503906 L 5.992188 -6.675781 L 3.875 -6.675781 L 3.875 -2.519531 C 3.875 -1.929688 3.957031 -1.507812 4.121094 -1.261719 C 4.285156 -1.011719 4.582031 -0.890625 5.007812 -0.890625 C 5.148438 -0.890625 5.335938 -0.898438 5.582031 -0.917969 C 5.824219 -0.9375 5.996094 -0.960938 6.089844 -0.988281 Z "/>
</g>
<g id="glyph-0-3">
<path d="M 10.316406 0 L 5.75 0 L 5.75 -0.554688 C 5.851562 -0.566406 5.96875 -0.578125 6.105469 -0.59375 C 6.242188 -0.609375 6.34375 -0.632812 6.410156 -0.667969 C 6.515625 -0.722656 6.59375 -0.804688 6.636719 -0.910156 C 6.679688 -1.019531 6.699219 -1.175781 6.699219 -1.382812 L 6.699219 -4.9375 C 6.699219 -5.457031 6.601562 -5.847656 6.40625 -6.105469 C 6.210938 -6.363281 5.933594 -6.496094 5.574219 -6.496094 C 5.371094 -6.496094 5.183594 -6.464844 5.007812 -6.402344 C 4.835938 -6.34375 4.664062 -6.253906 4.496094 -6.136719 C 4.351562 -6.035156 4.230469 -5.933594 4.144531 -5.824219 C 4.054688 -5.71875 3.980469 -5.625 3.917969 -5.542969 L 3.917969 -1.464844 C 3.917969 -1.277344 3.941406 -1.128906 3.988281 -1.023438 C 4.035156 -0.914062 4.121094 -0.824219 4.246094 -0.753906 C 4.320312 -0.707031 4.421875 -0.664062 4.546875 -0.628906 C 4.671875 -0.59375 4.789062 -0.570312 4.90625 -0.554688 L 4.90625 0 L 0.273438 0 L 0.273438 -0.554688 C 0.40625 -0.566406 0.535156 -0.578125 0.660156 -0.59375 C 0.785156 -0.609375 0.894531 -0.632812 0.992188 -0.667969 C 1.15625 -0.730469 1.265625 -0.816406 1.324219 -0.929688 C 1.382812 -1.042969 1.414062 -1.195312 1.414062 -1.382812 L 1.414062 -9.851562 C 1.414062 -10.011719 1.375 -10.1875 1.300781 -10.367188 C 1.222656 -10.550781 1.117188 -10.6875 0.980469 -10.777344 C 0.878906 -10.84375 0.730469 -10.894531 0.539062 -10.933594 C 0.347656 -10.972656 0.175781 -10.996094 0.0234375 -11.007812 L 0.0234375 -11.5625 L 3.804688 -11.757812 L 3.917969 -11.636719 L 3.917969 -6.410156 L 3.949219 -6.410156 C 4.140625 -6.582031 4.316406 -6.738281 4.46875 -6.878906 C 4.625 -7.015625 4.8125 -7.15625 5.035156 -7.300781 C 5.222656 -7.421875 5.464844 -7.523438 5.765625 -7.609375 C 6.066406 -7.695312 6.390625 -7.738281 6.742188 -7.738281 C 7.558594 -7.738281 8.175781 -7.503906 8.585938 -7.035156 C 9 -6.5625 9.207031 -5.941406 9.207031 -5.171875 L 9.207031 -1.449219 C 9.207031 -1.261719 9.234375 -1.113281 9.289062 -1.003906 C 9.34375 -0.890625 9.449219 -0.800781 9.601562 -0.738281 C 9.691406 -0.695312 9.792969 -0.660156 9.90625 -0.628906 C 10.015625 -0.601562 10.152344 -0.574219 10.316406 -0.554688 Z "/>
</g>
<g id="glyph-0-4">
<path d="M 10.34375 -0.160156 L 6.722656 0.0625 L 6.609375 -0.046875 L 6.609375 -1.039062 L 6.5625 -1.039062 C 6.390625 -0.882812 6.222656 -0.730469 6.058594 -0.582031 C 5.894531 -0.433594 5.699219 -0.296875 5.46875 -0.175781 C 5.210938 -0.0390625 4.96875 0.0625 4.738281 0.128906 C 4.507812 0.195312 4.171875 0.226562 3.734375 0.226562 C 2.96875 0.226562 2.386719 -0.00390625 1.976562 -0.464844 C 1.570312 -0.925781 1.367188 -1.574219 1.367188 -2.414062 L 1.367188 -5.832031 C 1.367188 -6.03125 1.328125 -6.191406 1.253906 -6.316406 C 1.179688 -6.441406 1.078125 -6.550781 0.953125 -6.644531 C 0.851562 -6.722656 0.71875 -6.777344 0.558594 -6.808594 C 0.398438 -6.84375 0.253906 -6.863281 0.121094 -6.875 L 0.121094 -7.429688 L 3.789062 -7.625 L 3.875 -7.511719 L 3.875 -2.460938 C 3.875 -1.9375 3.972656 -1.554688 4.175781 -1.304688 C 4.375 -1.058594 4.648438 -0.933594 4.996094 -0.933594 C 5.359375 -0.933594 5.679688 -1.027344 5.964844 -1.214844 C 6.253906 -1.402344 6.460938 -1.601562 6.59375 -1.816406 L 6.59375 -5.910156 C 6.59375 -6.082031 6.558594 -6.234375 6.496094 -6.371094 C 6.429688 -6.507812 6.332031 -6.621094 6.207031 -6.707031 C 6.113281 -6.769531 5.984375 -6.808594 5.816406 -6.828125 C 5.644531 -6.847656 5.472656 -6.863281 5.292969 -6.875 L 5.292969 -7.429688 L 8.984375 -7.625 L 9.101562 -7.511719 L 9.101562 -1.648438 C 9.101562 -1.472656 9.136719 -1.320312 9.207031 -1.195312 C 9.277344 -1.070312 9.378906 -0.96875 9.515625 -0.882812 C 9.609375 -0.820312 9.734375 -0.777344 9.886719 -0.753906 C 10.042969 -0.734375 10.195312 -0.71875 10.34375 -0.714844 Z "/>
</g>
<g id="glyph-0-5">
<path d="M 15.527344 0 L 11.015625 0 L 11.015625 -0.554688 C 11.125 -0.570312 11.238281 -0.582031 11.359375 -0.59375 C 11.480469 -0.601562 11.582031 -0.628906 11.660156 -0.667969 C 11.773438 -0.71875 11.84375 -0.804688 11.871094 -0.921875 C 11.902344 -1.042969 11.917969 -1.195312 11.917969 -1.382812 L 11.917969 -4.929688 C 11.917969 -5.453125 11.824219 -5.84375 11.640625 -6.101562 C 11.453125 -6.363281 11.1875 -6.496094 10.84375 -6.496094 C 10.625 -6.496094 10.429688 -6.460938 10.261719 -6.390625 C 10.089844 -6.324219 9.933594 -6.238281 9.792969 -6.136719 C 9.644531 -6.03125 9.53125 -5.925781 9.449219 -5.816406 C 9.367188 -5.710938 9.300781 -5.621094 9.242188 -5.542969 L 9.242188 -1.464844 C 9.242188 -1.285156 9.265625 -1.136719 9.308594 -1.023438 C 9.351562 -0.90625 9.429688 -0.816406 9.546875 -0.753906 C 9.625 -0.707031 9.71875 -0.664062 9.820312 -0.628906 C 9.921875 -0.59375 10.03125 -0.570312 10.148438 -0.554688 L 10.148438 0 L 5.832031 0 L 5.832031 -0.554688 C 5.929688 -0.566406 6.042969 -0.578125 6.179688 -0.59375 C 6.316406 -0.609375 6.414062 -0.632812 6.480469 -0.667969 C 6.585938 -0.722656 6.65625 -0.804688 6.6875 -0.910156 C 6.722656 -1.019531 6.738281 -1.175781 6.738281 -1.382812 L 6.738281 -4.929688 C 6.738281 -5.453125 6.644531 -5.84375 6.460938 -6.101562 C 6.273438 -6.363281 6.007812 -6.496094 5.664062 -6.496094 C 5.445312 -6.496094 5.25 -6.460938 5.082031 -6.390625 C 4.910156 -6.324219 4.753906 -6.238281 4.613281 -6.136719 C 4.464844 -6.03125 4.351562 -5.925781 4.269531 -5.816406 C 4.1875 -5.710938 4.121094 -5.621094 4.0625 -5.542969 L 4.0625 -1.464844 C 4.0625 -1.289062 4.085938 -1.140625 4.132812 -1.027344 C 4.175781 -0.910156 4.257812 -0.816406 4.375 -0.753906 C 4.457031 -0.707031 4.546875 -0.664062 4.652344 -0.628906 C 4.757812 -0.59375 4.867188 -0.570312 4.984375 -0.554688 L 4.984375 0 L 0.433594 0 L 0.433594 -0.554688 C 0.566406 -0.566406 0.695312 -0.578125 0.820312 -0.59375 C 0.945312 -0.609375 1.054688 -0.632812 1.148438 -0.667969 C 1.308594 -0.730469 1.421875 -0.816406 1.480469 -0.929688 C 1.542969 -1.042969 1.574219 -1.195312 1.574219 -1.382812 L 1.574219 -5.804688 C 1.574219 -5.964844 1.527344 -6.125 1.441406 -6.277344 C 1.355469 -6.433594 1.253906 -6.550781 1.132812 -6.636719 C 1.039062 -6.699219 0.925781 -6.75 0.785156 -6.789062 C 0.648438 -6.832031 0.492188 -6.859375 0.328125 -6.875 L 0.328125 -7.429688 L 3.949219 -7.625 L 4.0625 -7.511719 L 4.0625 -6.441406 L 4.09375 -6.441406 C 4.234375 -6.566406 4.402344 -6.71875 4.597656 -6.894531 C 4.792969 -7.066406 4.976562 -7.207031 5.148438 -7.316406 C 5.335938 -7.4375 5.578125 -7.539062 5.871094 -7.617188 C 6.164062 -7.699219 6.488281 -7.738281 6.835938 -7.738281 C 7.414062 -7.738281 7.894531 -7.613281 8.28125 -7.363281 C 8.671875 -7.113281 8.945312 -6.78125 9.105469 -6.363281 L 9.175781 -6.363281 C 9.324219 -6.5 9.503906 -6.664062 9.714844 -6.847656 C 9.925781 -7.03125 10.121094 -7.179688 10.300781 -7.292969 C 10.496094 -7.417969 10.75 -7.523438 11.054688 -7.609375 C 11.363281 -7.695312 11.691406 -7.738281 12.039062 -7.738281 C 12.804688 -7.738281 13.390625 -7.515625 13.804688 -7.0625 C 14.21875 -6.613281 14.425781 -5.972656 14.425781 -5.140625 L 14.425781 -1.449219 C 14.425781 -1.261719 14.453125 -1.113281 14.507812 -1 C 14.5625 -0.886719 14.664062 -0.796875 14.8125 -0.738281 C 14.894531 -0.703125 14.992188 -0.664062 15.113281 -0.628906 C 15.230469 -0.59375 15.367188 -0.570312 15.527344 -0.554688 Z "/>
</g>
<g id="glyph-0-6">
<path d="M 7.71875 -7.875 C 7.71875 -6.859375 7.367188 -6.035156 6.667969 -5.402344 C 5.96875 -4.765625 5.039062 -4.40625 3.875 -4.3125 L 3.828125 -3.28125 L 3.152344 -3.28125 L 3.152344 -6.234375 C 3.886719 -6.296875 4.460938 -6.527344 4.875 -6.929688 C 5.292969 -7.332031 5.5 -7.882812 5.5 -8.574219 C 5.5 -9.128906 5.355469 -9.570312 5.0625 -9.902344 C 4.769531 -10.234375 4.378906 -10.398438 3.890625 -10.398438 C 3.679688 -10.398438 3.496094 -10.378906 3.335938 -10.332031 C 3.171875 -10.289062 3.015625 -10.222656 2.863281 -10.132812 C 2.914062 -9.96875 2.972656 -9.761719 3.042969 -9.507812 C 3.109375 -9.25 3.144531 -9.011719 3.144531 -8.796875 C 3.144531 -8.441406 3.03125 -8.167969 2.800781 -7.972656 C 2.570312 -7.777344 2.25 -7.679688 1.839844 -7.679688 C 1.453125 -7.679688 1.152344 -7.800781 0.929688 -8.042969 C 0.710938 -8.285156 0.601562 -8.585938 0.601562 -8.941406 C 0.601562 -9.523438 0.933594 -10.015625 1.59375 -10.421875 C 2.257812 -10.828125 3.058594 -11.027344 3.996094 -11.027344 C 5.105469 -11.027344 6 -10.742188 6.6875 -10.164062 C 7.375 -9.585938 7.71875 -8.824219 7.71875 -7.875 M 4.984375 -1.183594 C 4.984375 -0.800781 4.835938 -0.46875 4.546875 -0.195312 C 4.253906 0.0820312 3.914062 0.21875 3.523438 0.21875 C 3.128906 0.21875 2.785156 0.0820312 2.496094 -0.195312 C 2.203125 -0.46875 2.058594 -0.800781 2.058594 -1.183594 C 2.058594 -1.570312 2.203125 -1.902344 2.496094 -2.183594 C 2.785156 -2.464844 3.128906 -2.605469 3.523438 -2.605469 C 3.914062 -2.605469 4.253906 -2.464844 4.546875 -2.183594 C 4.835938 -1.902344 4.984375 -1.570312 4.984375 -1.183594 Z "/>
</g>
</g>
</defs>
<g fill="rgb(89.803922%, 19.215686%, 43.921569%)" fill-opacity="1">
<use xlink:href="#glyph-0-0" x="30" y="34.264648"/>
<use xlink:href="#glyph-0-1" x="41" y="34.264648"/>
<use xlink:href="#glyph-0-2" x="46" y="34.264648"/>
<use xlink:href="#glyph-0-3" x="52" y="34.264648"/>
<use xlink:href="#glyph-0-1" x="63" y="34.264648"/>
<use xlink:href="#glyph-0-4" x="68" y="34.264648"/>
<use xlink:href="#glyph-0-5" x="79" y="34.264648"/>
<use xlink:href="#glyph-0-6" x="95" y="34.264648"/>
</g>
</svg>
