<?xml version="1.0" encoding="UTF-8"?>
<svg xmlns="http://www.w3.org/2000/svg" xmlns:xlink="http://www.w3.org/1999/xlink" width="540" height="960" viewBox="0 0 540 960">
<defs>
<g>
<g id="glyph-0-0">
<path d="M 1.371094 0.0664062 C 1.210938 0.0664062 1.058594 0.03125 0.910156 -0.03125 C 0.761719 -0.09375 0.632812 -0.183594 0.519531 -0.304688 C 0.40625 -0.421875 0.316406 -0.570312 0.25 -0.738281 C 0.183594 -0.910156 0.148438 -1.105469 0.148438 -1.320312 C 0.148438 -1.535156 0.179688 -1.730469 0.246094 -1.90625 C 0.3125 -2.082031 0.402344 -2.234375 0.519531 -2.359375 C 0.636719 -2.484375 0.769531 -2.582031 0.929688 -2.652344 C 1.085938 -2.71875 1.253906 -2.753906 1.429688 -2.753906 C 1.5625 -2.753906 1.683594 -2.738281 1.792969 -2.703125 C 1.898438 -2.671875 2 -2.625 2.097656 -2.566406 L 2.175781 -2.695312 L 2.328125 -2.695312 L 2.34375 -1.734375 L 2.191406 -1.734375 C 2.167969 -1.828125 2.140625 -1.929688 2.097656 -2.039062 C 2.058594 -2.148438 2.011719 -2.242188 1.957031 -2.316406 C 1.894531 -2.402344 1.824219 -2.46875 1.738281 -2.519531 C 1.65625 -2.566406 1.5625 -2.59375 1.453125 -2.59375 C 1.332031 -2.59375 1.21875 -2.566406 1.109375 -2.511719 C 1.003906 -2.457031 0.914062 -2.375 0.835938 -2.269531 C 0.765625 -2.167969 0.707031 -2.035156 0.664062 -1.878906 C 0.621094 -1.71875 0.601562 -1.542969 0.601562 -1.347656 C 0.601562 -1.175781 0.625 -1.015625 0.667969 -0.875 C 0.710938 -0.730469 0.773438 -0.601562 0.855469 -0.492188 C 0.933594 -0.386719 1.03125 -0.300781 1.140625 -0.242188 C 1.253906 -0.179688 1.375 -0.148438 1.511719 -0.148438 C 1.613281 -0.148438 1.710938 -0.167969 1.796875 -0.199219 C 1.882812 -0.230469 1.957031 -0.273438 2.019531 -0.328125 C 2.082031 -0.382812 2.136719 -0.445312 2.1875 -0.515625 C 2.234375 -0.585938 2.273438 -0.664062 2.304688 -0.75 L 2.445312 -0.679688 C 2.335938 -0.414062 2.191406 -0.222656 2.011719 -0.105469 C 1.832031 0.0078125 1.621094 0.0664062 1.371094 0.0664062 Z "/>
</g>
<g id="glyph-0-1">
<path d="M 1.015625 0 L 0.101562 0 L 0.101562 -0.125 C 0.128906 -0.128906 0.160156 -0.128906 0.195312 -0.132812 C 0.226562 -0.136719 0.253906 -0.140625 0.273438 -0.148438 C 0.3125 -0.160156 0.335938 -0.179688 0.355469 -0.207031 C 0.371094 -0.238281 0.382812 -0.273438 0.382812 -0.320312 L 0.382812 -2.488281 C 0.382812 -2.535156 0.371094 -2.578125 0.351562 -2.617188 C 0.332031 -2.65625 0.308594 -2.6875 0.273438 -2.710938 C 0.253906 -2.726562 0.210938 -2.742188 0.148438 -2.753906 C 0.0898438 -2.765625 0.0390625 -2.773438 0.00390625 -2.777344 L 0.00390625 -2.898438 L 0.707031 -2.941406 L 0.734375 -2.910156 L 0.734375 -0.34375 C 0.734375 -0.296875 0.742188 -0.261719 0.757812 -0.234375 C 0.777344 -0.203125 0.800781 -0.183594 0.839844 -0.167969 C 0.867188 -0.15625 0.894531 -0.144531 0.921875 -0.136719 C 0.949219 -0.132812 0.980469 -0.128906 1.015625 -0.125 Z "/>
</g>
<g id="glyph-1-0">
<path d="M 1.414062 -2.1875 L 1.414062 -2.035156 L 0.515625 -2.035156 L 0.515625 -2.1875 Z "/>
</g>
</g>
</defs>
<g fill="rgb(17.254902%, 71.372549%, 49.019608%)" fill-opacity="1">
<use xlink:href="#glyph-0-0" x="30" y="23.56543"/>
<use xlink:href="#glyph-0-1" x="32" y="23.56543"/>
</g>
<g fill="rgb(17.254902%, 71.372549%, 49.019608%)" fill-opacity="1">
<use xlink:href="#glyph-1-0" x="33" y="23.56543"/>
</g>
</svg>
